# File produced by Open Asset Import Library (http://www.assimp.sf.net)
# (assimp v3.1.187496374)

mtllib Forklift.obj.mtl

# 48 vertex positions
v  3284.75 1770.81 812.8
v  3284.75 1618.41 812.8
v  3284.75 1770.81 0
v  3284.75 1618.41 0
v  3259.35 1618.41 812.8
v  3259.35 1770.81 812.8
v  3259.35 1618.41 0
v  3259.35 1770.81 0
v  3281.05 2113.87 812.8
v  3281.05 1961.47 812.8
v  3281.05 2113.87 0
v  3281.05 1961.47 0
v  3255.65 1961.47 812.8
v  3255.65 2113.87 812.8
v  3255.65 1961.47 0
v  3255.65 2113.87 0
v  3288.03 2113.87 410.751
v  3288.03 1618.41 410.751
v  3288.03 2113.87 218.116
v  3288.03 1618.41 218.116
v  3262.63 1618.41 410.751
v  3262.63 2113.87 410.751
v  3262.63 1618.41 218.116
v  3262.63 2113.87 218.116
v  3263.19 1770.24 224.294
v  3669.58 1770.24 224.294
v  3263.19 1617.84 224.294
v  3669.58 1617.84 224.294
v  3669.58 1770.24 249.694
v  3669.58 1617.84 249.694
v  3263.19 1770.24 249.694
v  3263.19 1617.84 249.694
v  3261.14 2113.63 217.579
v  3667.54 2113.63 217.579
v  3261.14 1961.23 217.579
v  3667.54 1961.23 217.579
v  3667.54 2113.63 242.979
v  3667.54 1961.23 242.979
v  3261.14 2113.63 242.979
v  3261.14 1961.23 242.979
v  3264.06 2109.99 0
v  3670.46 2109.99 0
v  3264.06 1614.69 0
v  3670.46 1614.69 0
v  3670.46 2109.99 12.7
v  3670.46 1614.69 12.7
v  3264.06 2109.99 12.7
v  3264.06 1614.69 12.7

# 0 UV coordinates

# 6 vertex normals
vn 1 0 0
vn 0 0 1
vn 0 -1 0
vn 0 0 -1
vn 0 1 0
vn -1 0 0

# Mesh '<STL_BINARY>' with 72 faces
g <STL_BINARY>
usemtl DefaultMaterial
f  1//1 2//1 3//1
f  3//1 2//1 4//1
f  2//2 1//2 5//2
f  5//2 1//2 6//2
f  2//3 5//3 4//3
f  4//3 5//3 7//3
f  8//4 3//4 7//4
f  7//4 3//4 4//4
f  6//5 1//5 8//5
f  8//5 1//5 3//5
f  5//6 6//6 7//6
f  7//6 6//6 8//6
f  9//1 10//1 11//1
f  11//1 10//1 12//1
f  10//2 9//2 13//2
f  13//2 9//2 14//2
f  10//3 13//3 12//3
f  12//3 13//3 15//3
f  16//4 11//4 15//4
f  15//4 11//4 12//4
f  14//5 9//5 16//5
f  16//5 9//5 11//5
f  13//6 14//6 15//6
f  15//6 14//6 16//6
f  17//1 18//1 19//1
f  19//1 18//1 20//1
f  18//2 17//2 21//2
f  21//2 17//2 22//2
f  18//3 21//3 20//3
f  20//3 21//3 23//3
f  24//4 19//4 23//4
f  23//4 19//4 20//4
f  22//5 17//5 24//5
f  24//5 17//5 19//5
f  21//6 22//6 23//6
f  23//6 22//6 24//6
f  25//4 26//4 27//4
f  27//4 26//4 28//4
f  29//1 30//1 26//1
f  26//1 30//1 28//1
f  31//5 29//5 25//5
f  25//5 29//5 26//5
f  32//6 31//6 27//6
f  27//6 31//6 25//6
f  30//3 32//3 28//3
f  28//3 32//3 27//3
f  30//2 29//2 32//2
f  32//2 29//2 31//2
f  33//4 34//4 35//4
f  35//4 34//4 36//4
f  37//1 38//1 34//1
f  34//1 38//1 36//1
f  39//5 37//5 33//5
f  33//5 37//5 34//5
f  40//6 39//6 35//6
f  35//6 39//6 33//6
f  38//3 40//3 36//3
f  36//3 40//3 35//3
f  38//2 37//2 40//2
f  40//2 37//2 39//2
f  41//4 42//4 43//4
f  43//4 42//4 44//4
f  45//1 46//1 42//1
f  42//1 46//1 44//1
f  47//5 45//5 41//5
f  41//5 45//5 42//5
f  48//6 47//6 43//6
f  43//6 47//6 41//6
f  46//3 48//3 44//3
f  44//3 48//3 43//3
f  46//2 45//2 48//2
f  48//2 45//2 47//2

