# File produced by Open Asset Import Library (http://www.assimp.sf.net)
# (assimp v3.1.187496374)

mtllib Incinerator.obj.mtl

# 107 vertex positions
v  5841.86 3961.52 922.155
v  6682.68 3961.52 922.155
v  5841.86 3961.52 0
v  6682.68 3961.52 0
v  6682.68 3225.34 922.155
v  5841.86 3225.34 922.155
v  6682.68 3225.34 0
v  5841.86 3225.34 0
v  6682.68 3961.98 0
v  6861.94 3961.98 0
v  6861.94 3225.34 0
v  6682.68 3225.34 35.5339
v  6861.94 3225.34 35.5339
v  6496.95 3867.42 0
v  6496.95 3321.48 0
v  6496.95 3867.42 712.185
v  6496.95 3321.48 712.185
v  6828.74 3321.48 0
v  6828.74 3867.42 0
v  6828.74 3321.48 712.185
v  6828.74 3867.42 712.185
v  6861.94 3961.98 35.5339
v  6682.68 3961.98 35.5339
v  6839.22 3773.94 563.896
v  6839.22 3423.3 563.896
v  6839.22 3773.94 106.696
v  6839.22 3423.3 106.696
v  6705.97 3423.3 563.896
v  6705.97 3773.94 563.896
v  6705.97 3423.3 106.696
v  6705.97 3773.94 106.696
v  6198.32 3739.13 0
v  6197.23 3726.25 0
v  6122.12 3739.13 0
v  6197.23 3752.01 0
v  6193.97 3713.75 0
v  6188.65 3701.97 0
v  6181.41 3691.26 0
v  6172.47 3681.93 0
v  6162.08 3674.25 0
v  6150.53 3668.43 0
v  6138.18 3664.64 0
v  6125.36 3663 0
v  6112.44 3663.55 0
v  6099.81 3666.27 0
v  6087.82 3671.09 0
v  6076.81 3677.87 0
v  6067.11 3686.41 0
v  6058.99 3696.46 0
v  6052.69 3707.75 0
v  6048.38 3719.93 0
v  6046.2 3732.67 0
v  6046.2 3745.59 0
v  6048.38 3758.33 0
v  6052.69 3770.52 0
v  6058.99 3781.8 0
v  6067.11 3791.86 0
v  6076.81 3800.4 0
v  6087.82 3807.17 0
v  6099.81 3811.99 0
v  6112.44 3814.72 0
v  6125.36 3815.26 0
v  6138.18 3813.62 0
v  6150.53 3809.84 0
v  6162.08 3804.02 0
v  6172.47 3796.33 0
v  6181.41 3787 0
v  6188.65 3776.3 0
v  6193.97 3764.52 0
v  6198.32 3739.13 2032
v  6197.23 3752.01 2032
v  6122.12 3739.13 2032
v  6197.23 3726.25 2032
v  6193.97 3764.52 2032
v  6188.65 3776.3 2032
v  6181.41 3787 2032
v  6172.47 3796.33 2032
v  6162.08 3804.02 2032
v  6150.53 3809.84 2032
v  6138.18 3813.62 2032
v  6125.36 3815.26 2032
v  6112.44 3814.72 2032
v  6099.81 3811.99 2032
v  6087.82 3807.17 2032
v  6076.81 3800.4 2032
v  6067.11 3791.86 2032
v  6058.99 3781.8 2032
v  6052.69 3770.52 2032
v  6048.38 3758.33 2032
v  6046.2 3745.59 2032
v  6046.2 3732.67 2032
v  6048.38 3719.93 2032
v  6052.69 3707.75 2032
v  6058.99 3696.46 2032
v  6067.11 3686.41 2032
v  6076.81 3677.87 2032
v  6087.82 3671.09 2032
v  6099.81 3666.27 2032
v  6112.44 3663.55 2032
v  6125.36 3663 2032
v  6138.18 3664.64 2032
v  6150.53 3668.43 2032
v  6162.08 3674.25 2032
v  6172.47 3681.93 2032
v  6181.41 3691.26 2032
v  6188.65 3701.97 2032
v  6193.97 3713.75 2032

# 0 UV coordinates

# 80 vertex normals
vn 0 1 0
vn 0 0 1
vn 1 0 0
vn 0 0 -1
vn -1 0 0
vn 0 -1 0
vn 0.993592 0.113029 0
vn 0.97449 0.224432 0
vn 0.960198 0.279321 0
vn 0.922543 0.385894 0
vn 0.899181 0.437577 0
vn 0.844057 0.536254 0
vn 0.812296 0.583246 0
vn 0.741289 0.671186 0
vn 0.702043 0.712135 0
vn 0.617195 0.78681 0
vn 0.571593 0.820537 0
vn 0.475346 0.879799 0
vn 0.4247 0.905334 0
vn 0.319821 0.947478 0
vn 0.265589 0.964086 0
vn 0.155096 0.987899 0
vn 0.098837 0.995104 0
vn -0.0140902 0.999901 0
vn -0.070758 0.997494 0
vn -0.182872 0.983137 0
vn -0.238317 0.971187 0
vn -0.346392 0.93809 0
vn -0.399021 0.916942 0
vn -0.499947 0.866056 0
vn -0.548245 0.836318 0
vn -0.63912 0.769107 0
vn -0.681698 0.731634 0
vn -0.759907 0.650032 0
vn -0.795539 0.605903 0
vn -0.858832 0.512257 0
vn -0.886494 0.462741 0
vn -0.933051 0.359745 0
vn -0.951946 0.306266 0
vn -0.980427 0.196884 0
vn -0.990012 0.140981 0
vn -0.999598 0.0283594 0
vn -0.999598 -0.0283594 0
vn -0.990012 -0.140981 0
vn -0.980427 -0.196884 0
vn -0.951946 -0.306266 0
vn -0.933051 -0.359745 0
vn -0.886494 -0.462741 0
vn -0.858832 -0.512257 0
vn -0.795539 -0.605903 0
vn -0.759907 -0.650032 0
vn -0.681698 -0.731634 0
vn -0.63912 -0.769107 0
vn -0.548245 -0.836318 0
vn -0.499947 -0.866056 0
vn -0.399021 -0.916942 0
vn -0.346392 -0.93809 0
vn -0.238317 -0.971187 0
vn -0.182872 -0.983137 0
vn -0.070758 -0.997494 0
vn -0.0140902 -0.999901 0
vn 0.098837 -0.995104 0
vn 0.155096 -0.987899 0
vn 0.265589 -0.964086 0
vn 0.319821 -0.947478 0
vn 0.4247 -0.905334 0
vn 0.475346 -0.879799 0
vn 0.571593 -0.820537 0
vn 0.617195 -0.78681 0
vn 0.702043 -0.712135 0
vn 0.741289 -0.671186 0
vn 0.812296 -0.583246 0
vn 0.844057 -0.536254 0
vn 0.899181 -0.437577 0
vn 0.922543 -0.385894 0
vn 0.960198 -0.279321 0
vn 0.97449 -0.224432 0
vn 0.993592 -0.113029 0
vn 0.998402 -0.0565145 0
vn 0.998402 0.0565145 0

# Mesh '<STL_BINARY>' with 196 faces
g <STL_BINARY>
usemtl DefaultMaterial
f  1//1 2//1 3//1
f  3//1 2//1 4//1
f  5//2 2//2 6//2
f  6//2 2//2 1//2
f  2//3 5//3 4//3
f  4//3 5//3 7//3
f  3//4 4//4 8//4
f  8//4 4//4 7//4
f  9//4 10//4 7//4
f  7//4 10//4 11//4
f  6//5 1//5 8//5
f  8//5 1//5 3//5
f  5//6 6//6 7//6
f  7//6 6//6 8//6
f  11//6 12//6 7//6
f  13//6 12//6 11//6
f  14//5 15//5 16//5
f  16//5 15//5 17//5
f  18//4 15//4 19//4
f  19//4 15//4 14//4
f  15//6 18//6 17//6
f  17//6 18//6 20//6
f  16//2 17//2 21//2
f  21//2 17//2 20//2
f  19//1 14//1 21//1
f  21//1 14//1 16//1
f  18//3 19//3 20//3
f  20//3 19//3 21//3
f  22//3 13//3 10//3
f  10//3 13//3 11//3
f  23//1 22//1 9//1
f  9//1 22//1 10//1
f  12//5 23//5 7//5
f  7//5 23//5 9//5
f  13//2 22//2 12//2
f  12//2 22//2 23//2
f  24//3 25//3 26//3
f  26//3 25//3 27//3
f  25//2 24//2 28//2
f  28//2 24//2 29//2
f  25//6 28//6 27//6
f  27//6 28//6 30//6
f  31//4 26//4 30//4
f  30//4 26//4 27//4
f  29//1 24//1 31//1
f  31//1 24//1 26//1
f  28//5 29//5 30//5
f  30//5 29//5 31//5
f  32//4 33//4 34//4
f  34//4 35//4 32//4
f  33//4 36//4 34//4
f  34//4 36//4 37//4
f  34//4 37//4 38//4
f  38//4 39//4 34//4
f  34//4 39//4 40//4
f  34//4 40//4 41//4
f  41//4 42//4 34//4
f  34//4 42//4 43//4
f  34//4 43//4 44//4
f  44//4 45//4 34//4
f  34//4 45//4 46//4
f  34//4 46//4 47//4
f  47//4 48//4 34//4
f  34//4 48//4 49//4
f  34//4 49//4 50//4
f  50//4 51//4 34//4
f  34//4 51//4 52//4
f  34//4 52//4 53//4
f  53//4 54//4 34//4
f  34//4 54//4 55//4
f  34//4 55//4 56//4
f  56//4 57//4 34//4
f  34//4 57//4 58//4
f  34//4 58//4 59//4
f  59//4 60//4 34//4
f  34//4 60//4 61//4
f  34//4 61//4 62//4
f  62//4 63//4 34//4
f  34//4 63//4 64//4
f  34//4 64//4 65//4
f  65//4 66//4 34//4
f  34//4 66//4 67//4
f  34//4 67//4 68//4
f  68//4 69//4 34//4
f  34//4 69//4 35//4
f  70//2 71//2 72//2
f  72//2 73//2 70//2
f  71//2 74//2 72//2
f  72//2 74//2 75//2
f  72//2 75//2 76//2
f  76//2 77//2 72//2
f  72//2 77//2 78//2
f  72//2 78//2 79//2
f  79//2 80//2 72//2
f  72//2 80//2 81//2
f  72//2 81//2 82//2
f  82//2 83//2 72//2
f  72//2 83//2 84//2
f  72//2 84//2 85//2
f  85//2 86//2 72//2
f  72//2 86//2 87//2
f  72//2 87//2 88//2
f  88//2 89//2 72//2
f  72//2 89//2 90//2
f  72//2 90//2 91//2
f  91//2 92//2 72//2
f  72//2 92//2 93//2
f  72//2 93//2 94//2
f  94//2 95//2 72//2
f  72//2 95//2 96//2
f  72//2 96//2 97//2
f  97//2 98//2 72//2
f  72//2 98//2 99//2
f  72//2 99//2 100//2
f  100//2 101//2 72//2
f  72//2 101//2 102//2
f  72//2 102//2 103//2
f  103//2 104//2 72//2
f  72//2 104//2 105//2
f  72//2 105//2 106//2
f  106//2 107//2 72//2
f  72//2 107//2 73//2
f  70//7 35//7 71//7
f  71//8 35//8 69//8
f  71//9 69//9 74//9
f  74//10 69//10 68//10
f  74//11 68//11 75//11
f  75//12 68//12 67//12
f  75//13 67//13 76//13
f  76//14 67//14 66//14
f  76//15 66//15 77//15
f  77//16 66//16 65//16
f  77//17 65//17 78//17
f  78//18 65//18 64//18
f  78//19 64//19 79//19
f  79//20 64//20 63//20
f  79//21 63//21 80//21
f  80//22 63//22 62//22
f  80//23 62//23 81//23
f  81//24 62//24 61//24
f  81//25 61//25 82//25
f  82//26 61//26 60//26
f  82//27 60//27 83//27
f  83//28 60//28 59//28
f  83//29 59//29 84//29
f  84//30 59//30 58//30
f  84//31 58//31 85//31
f  85//32 58//32 57//32
f  85//33 57//33 86//33
f  86//34 57//34 56//34
f  86//35 56//35 87//35
f  87//36 56//36 55//36
f  87//37 55//37 88//37
f  88//38 55//38 54//38
f  88//39 54//39 89//39
f  89//40 54//40 53//40
f  89//41 53//41 90//41
f  90//42 53//42 52//42
f  90//43 52//43 91//43
f  91//44 52//44 51//44
f  91//45 51//45 92//45
f  92//46 51//46 50//46
f  92//47 50//47 93//47
f  93//48 50//48 49//48
f  93//49 49//49 94//49
f  94//50 49//50 48//50
f  94//51 48//51 95//51
f  95//52 48//52 47//52
f  95//53 47//53 96//53
f  96//54 47//54 46//54
f  96//55 46//55 97//55
f  97//56 46//56 45//56
f  97//57 45//57 98//57
f  98//58 45//58 44//58
f  98//59 44//59 99//59
f  99//60 44//60 43//60
f  99//61 43//61 100//61
f  100//62 43//62 42//62
f  100//63 42//63 101//63
f  101//64 42//64 41//64
f  101//65 41//65 102//65
f  102//66 41//66 40//66
f  102//67 40//67 103//67
f  103//68 40//68 39//68
f  103//69 39//69 104//69
f  104//70 39//70 38//70
f  104//71 38//71 105//71
f  105//72 38//72 37//72
f  105//73 37//73 106//73
f  106//74 37//74 36//74
f  106//75 36//75 107//75
f  107//76 36//76 33//76
f  107//77 33//77 73//77
f  73//78 33//78 32//78
f  73//79 32//79 70//79
f  70//80 32//80 35//80

